# xmcd
#
# Track frame offsets:
#	150
#	19185
#	38689
#	57739
#	78255
#	96692
#	118017
#	138920
#	158317
#	174670
#	196940
#	218362
#	237982
#	258247
#
# Disc length: 3721 seconds
#
# Revision: 0
# Processed by: cddbd v1.5.2PL0 Copyright (c) Steve Scherf et al.
# Submitted via: EasyCDDAExtractor 2010.6.0.0
#
DISCID=b60e870e
DTITLE=이정봉 - misty
DYEAR=1900
DGENRE=
TTITLE0=인연
TTITLE1=우리가 잠시 스쳐갈때
TTITLE2=용서해요
TTITLE3=그대 잃어가는 밤
TTITLE4=모두다 사랑하리
TTITLE5=추억은 없어
TTITLE6=혼자만의 전화
TTITLE7=어느 멋진날
TTITLE8=늦은 고백
TTITLE9=이별 그 이후에
TTITLE10=추억이란 이유만으로
TTITLE11=나의 모든 그대
TTITLE12=제발
TTITLE13=혼자만의 전화 (inst)
EXTD=
EXTT0=
EXTT1=
EXTT2=
EXTT3=
EXTT4=
EXTT5=
EXTT6=
EXTT7=
EXTT8=
EXTT9=
EXTT10=
EXTT11=
EXTT12=
EXTT13=
PLAYORDER=
